<?xml version="1.0" encoding="utf-8"?>
<!-- Generator: Adobe Illustrator 19.0.0, SVG Export Plug-In . SVG Version: 6.00 Build 0)  -->
<svg version="1.1" id="Layer_1" xmlns="http://www.w3.org/2000/svg" x="0px" y="0px"
	 viewBox="0 0 500 500" style="enable-background:new 0 0 500 500;" xml:space="preserve">
<style type="text/css">
	.st0{fill:#fff;}
</style>
<g>
	<path class="st0" d="M391.6,164.8c-12.9-10.3-27.6-17.4-43.6-21.3c-9.2-2.2-18.3-3.2-27.7-3.5c-7-0.2-13.9-0.2-20.9-0.2
		c-33,0-65.9,0-98.9,0c-7,0-13.9-0.1-20.9,0.2c-9.4,0.3-18.6,1.3-27.7,3.5c-16,3.9-30.7,11-43.6,21.3
		c-25.8,20.8-40.9,52.1-40.9,85.2c0,33.2,15.1,64.5,40.9,85.2c12.9,10.3,27.6,17.4,43.6,21.3c9.2,2.2,18.3,3.2,27.7,3.5
		c7,0.2,13.9,0.2,20.9,0.2c33,0,65.9,0,98.9,0c7,0,13.9,0.1,20.9-0.2c9.4-0.3,18.6-1.3,27.7-3.5c16-3.9,30.7-11,43.6-21.3
		c25.8-20.8,40.9-52.1,40.9-85.2C432.5,216.8,417.4,185.5,391.6,164.8z M343.3,279.7c-4.9,3.4-10.3,5.4-16.1,6.3
		c-5.8,0.9-11.6,0.8-17.4,0.8c-39.9,0-79.8,0-119.7,0c-5.8,0-11.6,0.2-17.4-0.8c-5.8-0.9-11.2-3-16.1-6.3
		c-9.8-6.7-15.6-17.8-15.6-29.7c0-11.9,5.9-22.9,15.6-29.6c4.9-3.4,10.3-5.4,16.1-6.3c5.8-0.9,11.6-0.8,17.4-0.8
		c39.9,0,79.8,0,119.7,0c5.8,0,11.6-0.2,17.4,0.8c5.8,0.9,11.2,3,16.1,6.3c9.8,6.7,15.6,17.8,15.6,29.7
		C359,261.9,353.1,272.9,343.3,279.7z"/>
</g>
</svg>
