<?xml version="1.0" standalone="no"?>
<!DOCTYPE svg PUBLIC "-//W3C//DTD SVG 20010904//EN"
 "http://www.w3.org/TR/2001/REC-SVG-20010904/DTD/svg10.dtd">
<svg version="1.0" xmlns="http://www.w3.org/2000/svg"
 width="700.000000pt" height="700.000000pt" viewBox="0 0 700.000000 700.000000"
 preserveAspectRatio="xMidYMid meet">
<metadata>
Created by potrace 1.14, written by Peter Selinger 2001-2017
</metadata>
<g transform="translate(0.000000,700.000000) scale(0.100000,-0.100000)"
fill="#000000" stroke="none">
<path d="M3395 6849 c-71 -11 -115 -24 -176 -55 -52 -26 -1734 -1001 -1846
-1071 -52 -32 -80 -57 -98 -87 l-25 -43 -1 -400 c-1 -444 -3 -431 65 -491 31
-27 36 -37 36 -76 0 -38 -4 -47 -34 -69 -66 -51 -66 -51 -67 -497 l0 -402 25
-39 c14 -21 37 -46 51 -55 21 -14 25 -24 25 -64 0 -40 -4 -50 -25 -64 -14 -9
-36 -34 -50 -55 l-25 -38 -1 -399 c0 -252 3 -409 10 -426 6 -15 28 -45 51 -66
34 -34 40 -46 40 -81 0 -35 -6 -46 -36 -73 -66 -58 -64 -46 -65 -487 -1 -439
-2 -426 63 -488 25 -24 1794 -1054 1933 -1126 133 -68 390 -65 529 5 129 66
1887 1095 1914 1121 62 59 60 47 63 483 2 446 5 428 -70 497 -54 49 -57 95
-10 129 17 13 42 41 54 63 l24 40 2 400 c2 448 4 430 -70 497 -57 51 -56 82 4
141 24 24 49 56 54 70 6 14 11 196 12 425 2 398 2 400 -21 436 -12 20 -37 48
-56 62 -48 37 -47 81 1 126 77 69 74 47 75 493 2 259 -2 409 -8 427 -6 14 -26
41 -45 60 -37 37 -1890 1110 -1977 1144 -54 22 -185 45 -238 43 -15 -1 -54 -5
-87 -10z m2043 -1944 c2 -127 0 -150 -14 -166 -10 -11 -25 -19 -36 -19 -17 0
-18 11 -18 150 0 138 2 152 21 171 38 38 44 22 47 -136z m-3786 -18 c38 -43
47 -93 21 -119 -19 -19 -22 -19 -52 -4 -32 17 -71 80 -71 115 0 29 28 53 54
46 11 -4 33 -21 48 -38z m3576 -104 c2 -136 2 -142 -21 -169 -16 -18 -30 -25
-40 -21 -15 6 -17 25 -17 149 0 157 10 192 53 186 21 -3 22 -8 25 -145z
m-3393 8 c17 -10 39 -36 49 -59 49 -108 -49 -139 -104 -32 -24 48 -25 68 -3
92 20 22 21 22 58 -1z m3173 -138 l3 -151 -27 -21 c-15 -12 -31 -18 -35 -14
-4 4 -9 72 -10 150 -1 119 1 146 15 168 10 15 25 25 34 23 15 -3 17 -22 20
-155z m-2952 13 c33 -23 59 -92 48 -124 -14 -41 -49 -41 -88 1 -73 77 -40 178
40 123z m2742 -133 c2 -136 2 -142 -21 -169 -16 -18 -30 -25 -40 -21 -15 6
-17 25 -17 149 0 157 10 192 53 186 21 -3 22 -8 25 -145z m-220 -130 l3 -151
-27 -21 c-43 -34 -49 -17 -49 143 0 128 2 146 19 165 11 12 27 20 35 19 14 -3
16 -27 19 -155z m-1898 -81 l235 -137 3 -93 c1 -50 -1 -92 -5 -92 -4 0 -116
63 -248 139 l-240 139 -3 91 c-2 69 0 91 10 90 7 0 119 -62 248 -137z m1688
-39 c2 -136 2 -142 -21 -169 -16 -18 -30 -25 -40 -21 -15 6 -17 25 -17 149 0
157 10 192 53 186 21 -3 22 -8 25 -145z m-220 -129 l2 -150 -26 -25 c-25 -24
-26 -24 -40 -4 -12 16 -15 48 -12 156 3 119 6 140 22 158 11 12 27 20 35 19
14 -3 16 -27 19 -154z m-212 2 c3 -13 4 -81 2 -150 -3 -113 -5 -128 -25 -147
-12 -13 -28 -19 -37 -16 -23 9 -24 282 0 315 20 30 52 29 60 -2z m1504 -378
c0 -127 -3 -154 -17 -170 -9 -10 -24 -18 -35 -18 -17 0 -18 11 -18 152 0 127
3 154 17 170 9 10 24 18 35 18 17 0 18 -11 18 -152z m-210 -129 c0 -130 -1
-139 -23 -165 -16 -18 -30 -25 -40 -21 -15 6 -17 26 -17 152 0 143 1 146 25
171 21 21 29 23 40 14 12 -10 15 -42 15 -151z m-3591 125 c59 -49 64 -144 7
-144 -52 0 -112 102 -87 149 15 28 43 27 80 -5z m217 -129 c43 -46 54 -99 27
-127 -19 -19 -22 -19 -52 -3 -32 16 -70 80 -71 117 0 21 26 48 47 48 9 0 31
-16 49 -35z m3152 -119 c2 -128 0 -151 -14 -167 -10 -11 -25 -19 -36 -19 -16
0 -18 11 -20 128 0 70 0 138 1 152 3 31 30 62 50 58 14 -3 16 -27 19 -152z
m-2962 15 c32 -19 64 -74 64 -109 0 -20 -24 -52 -38 -52 -27 0 -72 44 -87 84
-16 43 -16 47 -1 71 20 30 22 30 62 6z m2754 -142 c0 -130 -1 -139 -23 -165
-16 -18 -30 -25 -40 -21 -15 6 -17 26 -17 152 0 143 1 146 25 171 21 21 29 23
40 14 12 -10 15 -42 15 -151z m-222 -118 c3 -154 -6 -191 -48 -191 -26 0 -33
41 -28 183 2 97 6 118 22 136 11 12 27 20 35 19 14 -3 16 -26 19 -147z m-1897
-88 l239 -138 0 -92 c0 -51 -2 -93 -6 -93 -3 0 -115 64 -250 141 l-244 142 0
88 c0 60 4 89 11 89 7 0 119 -62 250 -137z m1689 -44 c0 -130 -1 -139 -23
-165 -16 -18 -30 -25 -40 -21 -15 6 -17 26 -17 152 0 143 1 146 25 171 21 21
29 23 40 14 12 -10 15 -42 15 -151z m-222 -118 c3 -154 -6 -191 -48 -191 -28
0 -32 28 -28 173 3 107 6 128 22 146 11 12 27 20 35 19 14 -3 16 -26 19 -147z
m-213 -133 c0 -138 -1 -149 -22 -169 -12 -13 -28 -19 -37 -16 -14 5 -16 28
-16 149 0 157 10 192 53 186 21 -3 22 -7 22 -150z m1505 -246 c0 -158 -9 -192
-51 -192 -18 0 -19 8 -19 152 0 127 3 154 17 170 9 10 24 18 35 18 17 0 18
-11 18 -148z m-216 12 c3 -9 6 -76 6 -150 0 -131 -1 -136 -25 -160 -21 -21
-29 -23 -40 -14 -12 10 -15 42 -15 150 0 124 2 140 21 164 23 29 44 34 53 10z
m-3585 -20 c38 -32 58 -92 42 -123 -18 -32 -54 -27 -89 13 -35 40 -48 86 -32
115 15 28 42 26 79 -5z m216 -127 c38 -38 55 -98 35 -122 -21 -25 -56 -17 -88
19 -35 40 -48 86 -32 115 16 30 47 26 85 -12z m3155 -115 c0 -158 -9 -192 -51
-192 -18 0 -19 8 -21 128 0 70 0 138 1 152 3 31 28 60 53 60 17 0 18 -11 18
-148z m-2945 -5 c38 -38 55 -98 35 -122 -30 -37 -88 -6 -116 61 -18 43 -18 59
2 78 23 24 42 20 79 -17z m2723 21 c8 -8 12 -56 12 -150 0 -135 -1 -140 -25
-164 -44 -44 -50 -31 -53 128 -2 134 -1 147 18 171 24 30 31 32 48 15z m-208
-266 c0 -157 -9 -192 -50 -192 -26 0 -33 41 -28 183 2 96 6 118 22 136 11 12
27 21 38 21 17 0 18 -11 18 -148z m-1901 -86 l241 -139 0 -94 c0 -52 -4 -93
-8 -91 -5 2 -118 66 -250 143 l-242 140 0 93 c0 52 4 92 9 90 4 -1 117 -65
250 -142z m1681 100 c8 -11 11 -57 8 -156 -3 -136 -4 -143 -27 -161 -13 -11
-29 -18 -35 -16 -7 2 -12 54 -14 149 -2 134 -1 147 18 171 24 31 33 33 50 13z
m-212 -265 c3 -154 -6 -191 -48 -191 -28 0 -32 28 -28 173 3 107 6 128 22 146
11 12 27 20 35 19 14 -3 16 -26 19 -147z m-218 15 c8 -11 11 -57 8 -156 -3
-136 -4 -143 -27 -161 -13 -11 -29 -18 -35 -16 -7 2 -12 54 -14 149 -2 134 -1
147 18 171 24 31 33 33 50 13z m1510 -395 c0 -130 -2 -152 -18 -172 -12 -14
-25 -20 -35 -16 -15 6 -17 26 -17 153 0 123 3 150 17 166 9 10 24 18 35 18 17
0 18 -11 18 -149z m-212 -120 c2 -118 0 -148 -13 -168 -11 -16 -24 -23 -38
-21 -21 3 -22 8 -25 144 -2 131 -1 143 19 168 12 15 29 26 38 24 14 -3 16 -23
19 -147z m-3580 105 c50 -57 51 -136 2 -136 -29 0 -79 48 -91 89 -24 80 34
110 89 47z m210 -120 c52 -60 51 -136 -2 -136 -30 0 -82 57 -91 99 -16 72 42
95 93 37z m3152 -115 c0 -130 -2 -152 -18 -172 -12 -14 -25 -20 -35 -16 -14 5
-17 25 -19 129 0 68 0 134 1 148 3 31 28 60 53 60 17 0 18 -11 18 -149z
m-2945 -4 c38 -38 55 -98 35 -122 -21 -25 -56 -17 -88 19 -35 40 -48 86 -32
115 16 30 47 26 85 -12z m2729 17 c3 -9 6 -73 6 -142 0 -142 -10 -177 -50
-177 l-25 0 -3 130 c-1 72 0 140 3 152 11 45 57 69 69 37z m-214 -262 c0 -156
-9 -192 -49 -192 -26 0 -31 27 -31 157 0 141 14 182 63 183 15 0 17 -14 17
-148z m-1904 -83 l244 -141 0 -94 c0 -53 -3 -93 -7 -91 -103 57 -428 246 -455
263 l-38 24 0 90 c0 50 3 90 6 90 4 0 116 -63 250 -141z m1688 95 c3 -9 6 -72
6 -140 0 -142 -13 -184 -55 -184 l-25 0 0 148 c0 135 2 150 20 170 24 26 45
28 54 6z m-514 -79 c0 -2 -10 -9 -22 -15 -22 -11 -22 -10 -4 4 21 17 26 19 26
11z m-584 -53 c-5 -4 -86 36 -86 43 0 3 20 -5 45 -17 24 -12 43 -23 41 -26z
m884 -132 c0 -137 -2 -152 -20 -170 -24 -24 -46 -26 -54 -4 -3 9 -6 69 -6 134
0 148 13 189 63 190 15 0 17 -14 17 -150z m-400 130 c-8 -5 -19 -10 -25 -10
-5 0 -3 5 5 10 8 5 20 10 25 10 6 0 3 -5 -5 -10z m-43 -16 c-3 -3 -12 -4 -19
-1 -8 3 -5 6 6 6 11 1 17 -2 13 -5z m-334 -11 c-7 -2 -19 -2 -25 0 -7 3 -2 5
12 5 14 0 19 -2 13 -5z m294 1 c-3 -3 -12 -4 -19 -1 -8 3 -5 6 6 6 11 1 17 -2
13 -5z m-219 -11 c-10 -2 -28 -2 -40 0 -13 2 -5 4 17 4 22 1 32 -1 23 -4z
m170 0 c-10 -2 -28 -2 -40 0 -13 2 -5 4 17 4 22 1 32 -1 23 -4z m316 -79 c3
-9 6 -72 6 -140 0 -126 -11 -175 -42 -186 -34 -13 -38 2 -38 151 0 134 2 149
20 169 24 26 45 28 54 6z"/>
</g>
</svg>
